# xmcd CD database file
#
# Track frame offsets:
#	150
#	15130
#	27462
#	43547
#	58130
#	80782
#	97480
#	112350
#	126307
#	145350
#	160737
#
# Disc length: 2348 seconds
#
# Revision: 3
# Processed by: cddbd v1.5.2PL0 Copyright (c) Steve Scherf et al.
# Submitted via: CDex 1.51
#
DISCID=a0092a0b
DTITLE=Diamond Rio - The Platinum Collection [CD2]
DYEAR=2004
DGENRE=Country
TTITLE0=Meet in the Middle 
TTITLE1=This State of Mind 
TTITLE2=They Don't Make Hearts (Like They Used To) 
TTITLE3=Mirror Mirror 
TTITLE4=The Ballad of Conley and Billy (The Proof's in the Pickin')
TTITLE5=Nowhere Bound
TTITLE6=It's Gone 
TTITLE7=Norma Jean Riley 
TTITLE8=Mama Don't Forget to Pray for Me 
TTITLE9=Pick Me Up
TTITLE10=Poultry Promenade 
EXTD=YEAR: 2004
EXTT0=
EXTT1=
EXTT2=
EXTT3=
EXTT4=
EXTT5=
EXTT6=
EXTT7=
EXTT8=
EXTT9=
EXTT10=
PLAYORDER=
